<?xml version="1.0" encoding="UTF-8"?>
<svg xmlns="http://www.w3.org/2000/svg" width="16" height="16" viewBox="0 0 16 16">
  <!-- gear: hub ring plus eight teeth, neutral -->
  <g fill="#9a9996">
    <path fill-rule="evenodd" d="M8 3.5 a4.5 4.5 0 1 0 0 9 a4.5 4.5 0 0 0 0-9 Z m0 2.6 a1.9 1.9 0 1 1 0 3.8 a1.9 1.9 0 0 1 0-3.8 Z"/>
    <g>
      <rect x="7" y="0.5" width="2" height="3" rx="0.6"/>
      <rect x="7" y="12.5" width="2" height="3" rx="0.6"/>
      <rect x="0.5" y="7" width="3" height="2" rx="0.6"/>
      <rect x="12.5" y="7" width="3" height="2" rx="0.6"/>
      <rect x="7" y="0.5" width="2" height="3" rx="0.6" transform="rotate(45 8 8)"/>
      <rect x="7" y="12.5" width="2" height="3" rx="0.6" transform="rotate(45 8 8)"/>
      <rect x="0.5" y="7" width="3" height="2" rx="0.6" transform="rotate(45 8 8)"/>
      <rect x="12.5" y="7" width="3" height="2" rx="0.6" transform="rotate(45 8 8)"/>
    </g>
  </g>
  <circle cx="12.5" cy="12.5" r="3.4" fill="#c01c28" stroke="#00000055" stroke-width="0.5"/>
</svg>
